<?xml version="1.0" encoding="utf-8"?>
<!-- Generator: Adobe Illustrator 24.0.0, SVG Export Plug-In . SVG Version: 6.00 Build 0)  -->
<svg version="1.1" id="Layer_1" xmlns="http://www.w3.org/2000/svg" xmlns:xlink="http://www.w3.org/1999/xlink" x="0px" y="0px"
	 viewBox="0 0 512 512" style="enable-background:new 0 0 512 512;" xml:space="preserve">
<style type="text/css">
	.st0{fill:#45D077;}
	.st1{fill:#FFFFFF;}
</style>
<g>
	<g>
		<circle class="st0" cx="256" cy="256" r="256"/>
	</g>
	<path class="st1" d="M333.5,381.9c-112.3-0.1-203.3-91.1-203.4-203.4c0-17.2,9.1-33.1,24-41.8c14.9-8.7,33.2-8.8,48.2-0.4l12.5,71
		L175.1,228c-4.4,2.3-6.3,7.4-4.6,12c17.7,46.8,54.7,83.8,101.5,101.6c4.6,1.7,9.8-0.2,12-4.6l20.7-39.7l71,12.5
		c8.4,15,8.2,33.3-0.4,48.2C366.6,372.8,350.7,381.9,333.5,381.9z"/>
</g>
</svg>
